<?xml version="1.0" encoding="UTF-8"?>
<svg version="1.1" xmlns="http://www.w3.org/2000/svg" width="2771" height="1035">
<path d="M0 0 C914.43 0 1828.86 0 2771 0 C2771 234.63 2771 469.26 2771 711 C2619.47532918 862.52467082 2619.47532918 862.52467082 2552.67237329 865.18910313 C2548.05881185 865.11761119 2543.52782121 865.01286172 2538.93309385 864.75642693 C2525.16192301 864.15899989 2511.46877054 864.43581755 2497.69465496 864.80846621 C2474.2030754 865.42191924 2450.75213629 865.42116585 2427.25722313 865.04226685 C2403.56594542 864.66229393 2379.90101174 864.59145285 2356.20804787 864.87054443 C2355.45146849 864.87931832 2354.69488911 864.88809221 2353.91538309 864.89713198 C2346.97819615 864.97762121 2340.04104825 865.06111767 2333.10394112 865.1482167 C2315.73324655 865.36596096 2298.36224553 865.53696371 2280.99074554 865.67594719 C2280.19603568 865.68232577 2279.40132581 865.68870436 2278.58253383 865.69527624 C2239.71095788 866.00281684 2200.84423333 865.79733839 2161.97297668 865.53616333 C2160.27707053 865.52478858 2158.58116438 865.51341467 2156.88525821 865.50204157 C2156.04471763 865.49640358 2155.20417705 865.49076558 2154.33816555 865.48495674 C2143.24822875 865.41059701 2132.1582849 865.33761538 2121.06831551 865.26826859 C2120.22015242 865.26294269 2119.37198933 865.25761679 2118.49812434 865.2521295 C2078.92748071 865.00552527 2039.35912947 865.06599701 1999.7881404 865.19081061 C1995.45183167 865.20438281 1991.11552119 865.21737123 1986.77921088 865.23042401 C1973.70432315 865.26995575 1960.62943814 865.31034102 1947.5545586 865.35249748 C1907.69999082 865.48085955 1867.84540718 865.56255991 1827.99065399 865.60386658 C1827.10380132 865.60480068 1826.21694864 865.60573479 1825.30322164 865.60669721 C1767.99739402 865.66623196 1710.69419252 865.51734736 1653.38916779 865.21632385 C1652.47644046 865.21154777 1651.56371313 865.20677169 1650.6233274 865.20185088 C1620.06517301 865.04193527 1589.50707893 864.87107748 1558.94899036 864.69910913 C1466.58436107 864.17967269 1374.22913457 863.89481201 1209.26383653 864.71479419 C1178.7128599 864.88663125 1148.16187413 865.05645764 1117.61083221 865.21632385 C1116.69834833 865.22111713 1115.78586444 865.22591042 1114.84572953 865.23084895 C1057.56658527 865.53147127 1000.28926486 865.66419858 943.00934601 865.60386658 C941.67954545 865.60248833 941.67954545 865.60248833 940.32288023 865.60108224 C900.48905571 865.55933982 860.65541798 865.47247114 820.82178168 865.34403819 C807.75322369 865.30195297 794.68465911 865.26192143 781.61609259 865.22258358 C777.28230023 865.20952866 772.94850862 865.1962883 768.61471816 865.18261879 C729.05253375 865.05820869 689.49346733 865.01984705 649.93168449 865.26826859 C648.66027116 865.27621887 648.66027116 865.27621887 647.36317271 865.28432977 C636.28034237 865.3538971 625.19754095 865.42770279 614.11474179 865.50204157 C612.85496988 865.51048986 612.85496988 865.51048986 611.56974804 865.51910882 C609.87543914 865.53047285 608.1811303 865.54184687 606.48682153 865.55323089 C567.65912715 865.81343715 528.83714422 865.98759175 490.00925446 865.67594719 C489.21562803 865.66959765 488.4220016 865.66324812 487.60432589 865.65670617 C470.25846317 865.51635795 452.91322433 865.33676509 435.56816702 865.11898879 C428.6428047 865.03255405 421.71738778 864.95085724 414.79195213 864.87054443 C414.03669453 864.86164787 413.28143692 864.8527513 412.50329272 864.84358514 C388.85896331 864.56723722 365.24208636 864.69555065 341.59986461 865.07682528 C317.49558371 865.46359386 293.44032339 865.35320337 269.34098353 864.7012133 C255.88415343 864.35073148 242.51628291 864.17324027 229.06851978 864.92376887 C192.98389559 866.64250863 173.12290919 858.47180094 136 847 C91.12 802.12 46.24 757.24 0 711 C0 476.37 0 241.74 0 0 Z M395 150 C395 181.02 395 212.04 395 244 C426.02 244 457.04 244 489 244 C489 212.98 489 181.96 489 150 C457.98 150 426.96 150 395 150 Z M1086 150 C1086 181.02 1086 212.04 1086 244 C1117.02 244 1148.04 244 1180 244 C1180 212.98 1180 181.96 1180 150 C1148.98 150 1117.96 150 1086 150 Z M1466 150 C1466 181.02 1466 212.04 1466 244 C1497.02 244 1528.04 244 1560 244 C1560 212.98 1560 181.96 1560 150 C1528.98 150 1497.96 150 1466 150 Z M1845 150 C1845 181.02 1845 212.04 1845 244 C1876.35 244 1907.7 244 1940 244 C1940 212.98 1940 181.96 1940 150 C1908.65 150 1877.3 150 1845 150 Z M2225 150 C2225 181.02 2225 212.04 2225 244 C2256.02 244 2287.04 244 2319 244 C2319 212.98 2319 181.96 2319 150 C2287.98 150 2256.96 150 2225 150 Z M234 343 C234 459.82 234 576.64 234 697 C371.28 697 508.56 697 650 697 C650 580.18 650 463.36 650 343 C512.72 343 375.44 343 234 343 Z M869 343 C869 459.82 869 576.64 869 697 C1419.44 697 1969.88 697 2537 697 C2537 580.18 2537 463.36 2537 343 C1986.56 343 1436.12 343 869 343 Z " fill="#000000" transform="translate(0,0)"/>
<path d="M0 0 C143.88 0 287.76 0 436 0 C436 89.79423077 436 89.79423077 422.96875 104.25390625 C410.69552042 115.97128304 396.88816085 118.3072597 380.57270813 118.26742554 C379.11473662 118.27116663 377.65676711 118.27576998 376.19880074 118.28115618 C372.20998314 118.29334495 368.22124966 118.2931306 364.2324177 118.29076743 C359.92346136 118.29035822 355.61453162 118.30140841 351.30558777 118.31088257 C342.86987884 118.32747109 334.43419786 118.33299115 325.99847398 118.33410732 C319.13858319 118.33505885 312.27870159 118.33917439 305.41881371 118.34550858 C285.9534166 118.36311542 266.48804152 118.37234836 247.02263639 118.37084763 C245.44969188 118.37072776 245.44969188 118.37072776 243.8449707 118.37060547 C242.27009705 118.37048283 242.27009705 118.37048283 240.66340777 118.37035771 C223.65350215 118.36954505 206.64368513 118.38867906 189.63380513 118.4168822 C172.15215446 118.44563795 154.67054696 118.459421 137.18887204 118.45769465 C127.38070666 118.45703166 117.57263416 118.46248397 107.76449013 118.48405075 C99.41271701 118.50229801 91.06107888 118.50658086 82.70929442 118.4930319 C78.45231782 118.48652001 74.19559991 118.48632033 69.93864822 118.5037384 C66.033108 118.51955351 62.12802976 118.51652046 58.22250023 118.49917014 C56.81808588 118.49611867 55.41363632 118.49966188 54.00926355 118.51089029 C39.80649462 118.61682342 28.16060098 116.00117436 17 107 C16.113125 106.401875 15.22625 105.80375 14.3125 105.1875 C6.37873088 97.68258327 2.6009903 88.40396122 0 78 C0 52.26 0 26.52 0 0 Z " fill="#000000" transform="translate(2156,917)"/>
<path d="M0 0 C143.88 0 287.76 0 436 0 C436 89.2849026 436 89.2849026 422 104.6875 C410.2703606 115.88126755 396.24385845 118.30644247 380.67950439 118.26069641 C379.22097095 118.26371963 377.76243909 118.26760997 376.30391002 118.27228898 C372.30896757 118.28255594 368.314115 118.28039047 364.31916523 118.27610838 C360.00546111 118.27363875 355.69177849 118.28265834 351.37808228 118.29014587 C342.93154051 118.30288892 334.48503055 118.304687 326.03848079 118.30234561 C319.17092156 118.30056162 312.30337198 118.30231383 305.4358139 118.30657005 C304.45788462 118.30716524 303.47995533 118.30776043 302.47239183 118.30837366 C300.48561487 118.30958543 298.49883792 118.31079956 296.51206097 118.31201603 C277.8832618 118.32289034 259.25448073 118.32072977 240.62568054 118.31463119 C223.59497586 118.30946379 206.56432841 118.32071299 189.53363505 118.33972941 C172.03620641 118.35911678 154.53880483 118.36736212 137.04136539 118.36360615 C127.22208953 118.36169526 117.40286236 118.36417063 107.58359528 118.37832069 C99.22297262 118.39024702 90.86242862 118.39162544 82.50180486 118.37953053 C78.23905061 118.37365025 73.97644012 118.37251873 69.71369553 118.38453293 C65.80520176 118.3954203 61.89697131 118.39225469 57.98848972 118.37827124 C56.58071858 118.37563211 55.17292661 118.37796604 53.76517597 118.38600711 C36.9862217 118.47513368 24.4696068 114.69320558 12.0390625 103.20703125 C-12.20778969 76.96283299 0 26.60185025 0 0 Z " fill="#000000" transform="translate(179,917)"/>
<path d="M0 0 C37.95 0 75.9 0 115 0 C115 14.52 115 29.04 115 44 C137.11 44 159.22 44 182 44 C182 104.39 182 164.78 182 227 C101.15 227 20.3 227 -63 227 C-63 166.61 -63 106.22 -63 44 C-42.21 44 -21.42 44 0 44 C0 29.48 0 14.96 0 0 Z " fill="#000000" transform="translate(1833,411)"/>
<path d="M0 0 C37.95 0 75.9 0 115 0 C115 14.52 115 29.04 115 44 C137.11 44 159.22 44 182 44 C182 104.39 182 164.78 182 227 C101.48 227 20.96 227 -62 227 C-62 166.61 -62 106.22 -62 44 C-41.54 44 -21.08 44 0 44 C0 29.48 0 14.96 0 0 Z " fill="#000000" transform="translate(2212,411)"/>
<path d="M0 0 C37.95 0 75.9 0 115 0 C115 14.52 115 29.04 115 44 C137.11 44 159.22 44 182 44 C182 104.39 182 164.78 182 227 C101.48 227 20.96 227 -62 227 C-62 166.61 -62 106.22 -62 44 C-41.54 44 -21.08 44 0 44 C0 29.48 0 14.96 0 0 Z " fill="#000000" transform="translate(1453,411)"/>
<path d="M0 0 C37.62 0 75.24 0 114 0 C114 14.52 114 29.04 114 44 C136.11 44 158.22 44 181 44 C181 104.39 181 164.78 181 227 C100.48 227 19.96 227 -63 227 C-63 166.61 -63 106.22 -63 44 C-42.21 44 -21.42 44 0 44 C0 29.48 0 14.96 0 0 Z " fill="#000000" transform="translate(1074,411)"/>
<path d="M0 0 C37.62 0 75.24 0 114 0 C114 14.52 114 29.04 114 44 C136.11 44 158.22 44 181 44 C181 104.39 181 164.78 181 227 C100.48 227 19.96 227 -63 227 C-63 166.61 -63 106.22 -63 44 C-42.21 44 -21.42 44 0 44 C0 29.48 0 14.96 0 0 Z " fill="#000000" transform="translate(386,411)"/>
</svg>
